<svg viewBox="0 0 24 24" fill="none" xmlns="http://www.w3.org/2000/svg">
<path d="M6.28418 4.72812H5.60059C4.4636 4.72812 3.5416 5.66818 3.5416 6.82031V18.5078C3.5416 19.6599 4.4636 20.6 5.60059 20.6H18.3993C19.5363 20.6 20.4583 19.6599 20.4583 18.5078V6.82031C20.4583 5.66818 19.5363 4.72812 18.3993 4.72812H17.7157V3.5V3.4H17.6157H16.3097H16.2097V3.5V4.72812H7.79017V3.5V3.4H7.69017H6.38418H6.28418V3.5V4.72812ZM17.7157 7.48438V6.25625H18.3993C18.7025 6.25625 18.9523 6.50779 18.9523 6.82031V8.31406H5.04759V6.82031C5.04759 6.50779 5.29733 6.25625 5.60059 6.25625H6.28418V7.48438V7.58437H6.38418H7.69017H7.79017V7.48438V6.25625H16.2097V7.48438V7.58437H16.3097H17.6157H17.7157V7.48438ZM18.9523 18.5078C18.9523 18.8203 18.7025 19.0719 18.3993 19.0719H5.60059C5.29733 19.0719 5.04759 18.8203 5.04759 18.5078V9.84219H18.9523V18.5078Z" fill="currentColor" stroke="currentColor" stroke-width="0.2"/>
<path d="M6.12305 11.0867H6.07305V11.1367V12.4648V12.5148H6.12305H7.42904H7.47904V12.4648V11.1367V11.0867H7.42904H6.12305Z" fill="currentColor" stroke="currentColor" stroke-width="0.1"/>
<path d="M8.73486 11.0867H8.68486V11.1367V12.4648V12.5148H8.73486H10.0409H10.0909V12.4648V11.1367V11.0867H10.0409H8.73486Z" fill="currentColor" stroke="currentColor" stroke-width="0.1"/>
<path d="M11.3469 11.0867H11.2969V11.1367V12.4648V12.5148H11.3469H12.6529H12.7029V12.4648V11.1367V11.0867H12.6529H11.3469Z" fill="currentColor" stroke="currentColor" stroke-width="0.1"/>
<path d="M13.959 11.0867H13.909V11.1367V12.4648V12.5148H13.959H15.265H15.315V12.4648V11.1367V11.0867H15.265H13.959Z" fill="currentColor" stroke="currentColor" stroke-width="0.1"/>
<path d="M16.5708 11.0867H16.5208V11.1367V12.4648V12.5148H16.5708H17.8768H17.9268V12.4648V11.1367V11.0867H17.8768H16.5708Z" fill="currentColor" stroke="currentColor" stroke-width="0.1"/>
<path d="M6.12305 13.743H6.07305V13.793V15.1211V15.1711H6.12305H7.42904H7.47904V15.1211V13.793V13.743H7.42904H6.12305Z" fill="currentColor" stroke="currentColor" stroke-width="0.1"/>
<path d="M8.73486 13.743H8.68486V13.793V15.1211V15.1711H8.73486H10.0409H10.0909V15.1211V13.793V13.743H10.0409H8.73486Z" fill="currentColor" stroke="currentColor" stroke-width="0.1"/>
<path d="M11.3469 13.743H11.2969V13.793V15.1211V15.1711H11.3469H12.6529H12.7029V15.1211V13.793V13.743H12.6529H11.3469Z" fill="currentColor" stroke="currentColor" stroke-width="0.1"/>
<path d="M13.959 13.743H13.909V13.793V15.1211V15.1711H13.959H15.265H15.315V15.1211V13.793V13.743H15.265H13.959Z" fill="currentColor" stroke="currentColor" stroke-width="0.1"/>
<path d="M6.12305 16.3992H6.07305V16.4492V17.7773V17.8273H6.12305H7.42904H7.47904V17.7773V16.4492V16.3992H7.42904H6.12305Z" fill="currentColor" stroke="currentColor" stroke-width="0.1"/>
<path d="M8.73486 16.3992H8.68486V16.4492V17.7773V17.8273H8.73486H10.0409H10.0909V17.7773V16.4492V16.3992H10.0409H8.73486Z" fill="currentColor" stroke="currentColor" stroke-width="0.1"/>
<path d="M11.3469 16.3992H11.2969V16.4492V17.7773V17.8273H11.3469H12.6529H12.7029V17.7773V16.4492V16.3992H12.6529H11.3469Z" fill="currentColor" stroke="currentColor" stroke-width="0.1"/>
<path d="M13.959 16.3992H13.909V16.4492V17.7773V17.8273H13.959H15.265H15.315V17.7773V16.4492V16.3992H15.265H13.959Z" fill="currentColor" stroke="currentColor" stroke-width="0.1"/>
<path d="M16.5708 13.743H16.5208V13.793V15.1211V15.1711H16.5708H17.8768H17.9268V15.1211V13.793V13.743H17.8768H16.5708Z" fill="currentColor" stroke="currentColor" stroke-width="0.1"/>
</svg>
