<svg width="24" height="24" viewBox="0 0 24 24" fill="none" xmlns="http://www.w3.org/2000/svg">
<g clip-path="url(#clip0_1271_27402)">
<path d="M17.028 11.6012H14.7772V10.2734C14.7772 9.76345 15.1593 9.37734 15.6567 9.37734H16.9953H17.0953V9.27734V7.21875V7.11875H16.9953H15.6567C13.937 7.11875 12.5536 8.53502 12.5536 10.2792V11.6012H10.6939H10.5939V11.7012V13.7598V13.8598H10.6939H12.5536V19.0719H5.60059C5.29733 19.0719 5.04759 18.8203 5.04759 18.5078V5.49219C5.04759 5.17966 5.29733 4.92813 5.60059 4.92813H18.3993C18.7025 4.92813 18.9523 5.17966 18.9523 5.49219V18.5078C18.9523 18.8203 18.7025 19.0719 18.3993 19.0719H14.7772V13.8598H16.6946H16.7798L16.7934 13.7758L17.1267 11.7172L17.1455 11.6012H17.028ZM18.3993 3.4H5.60059C4.4636 3.4 3.5416 4.34006 3.5416 5.49219V18.5078C3.5416 19.6599 4.4636 20.6 5.60059 20.6H18.3993C19.5363 20.6 20.4583 19.6599 20.4583 18.5078V5.49219C20.4583 4.34006 19.5363 3.4 18.3993 3.4Z" fill="currentColor" stroke="currentColor" stroke-width="0.2"/>
</g>
<defs>
<clipPath id="clip0_1271_27402">
<rect width="16.7167" height="17" fill="white" transform="translate(3.6416 3.5)"/>
</clipPath>
</defs>
</svg>
