<svg viewBox="0 0 24 24" fill="none" xmlns="http://www.w3.org/2000/svg">
<path d="M11.5003 3.21546L11.4997 3.21587L3.96281 8.65296C3.96271 8.65304 3.9626 8.65312 3.96249 8.65319C3.39848 9.05622 3.0375 9.73895 3.0375 10.4625V20.0625C3.0375 20.5579 3.44216 20.9625 3.9375 20.9625H9.6C10.0953 20.9625 10.5 20.5579 10.5 20.0625V16.5C10.5 15.6829 11.1453 15.0375 11.9625 15.0375C12.7797 15.0375 13.425 15.6829 13.425 16.5V20.0625C13.425 20.5579 13.8297 20.9625 14.325 20.9625H20.0625C20.5562 20.9625 20.9545 20.5625 20.9993 20.1149L21 20.1075V20.1V10.4625C21 9.73898 20.6391 9.05628 20.0751 8.65324C20.0749 8.65315 20.0748 8.65306 20.0747 8.65296L12.5378 3.21587L12.5378 3.21587L12.5372 3.21546C12.2225 2.99071 11.815 2.99071 11.5003 3.21546ZM19.2 10.4625V19.2H15.225V16.5C15.225 14.7297 13.7703 13.275 12 13.275C10.2297 13.275 8.775 14.7297 8.775 16.5V19.1625H4.8V10.425C4.8 10.2944 4.88166 10.1487 5.00139 10.0584L11.9997 5.02255L18.9984 10.0957C19.1182 10.186 19.2 10.3319 19.2 10.4625Z" fill="currentColor" stroke="currentColor" stroke-width="0.3"/>
</svg>
