<svg viewBox="0 0 24 24" fill="none" xmlns="http://www.w3.org/2000/svg">
<path d="M15.5556 4H20M20 4V8.44444M20 4L14.6667 9.33333M5.77778 4C4.79594 4 4 4.79594 4 5.77778V6.66667C4 14.0305 9.96954 20 17.3333 20H18.2222C19.2041 20 20 19.2041 20 18.2222V15.3073C20 14.9247 19.7552 14.5851 19.3922 14.4641L15.398 13.1327C14.9784 12.9928 14.5197 13.1828 14.3219 13.5784L13.3187 15.5849C11.1456 14.6051 9.39489 12.8544 8.41512 10.6813L10.4216 9.6781C10.8172 9.48028 11.0072 9.02162 10.8673 8.60197L9.53593 4.6078C9.41494 4.24483 9.07526 4 8.69266 4H5.77778Z" stroke="currentColor" stroke-width="1.7" stroke-linecap="round" stroke-linejoin="round"/>
</svg>
