<svg viewBox="0 0 17 17" fill="currentColor" xmlns="http://www.w3.org/2000/svg">
<path d="M3.00012 3C2.44784 3 2.00012 3.44772 2.00012 4C2.00012 4.55228 2.44784 5 3.00012 5H14.0001C14.5524 5 15.0001 4.55228 15.0001 4C15.0001 3.44772 14.5524 3 14.0001 3H3.00012Z" fill="currentColor"/>
<path d="M3.00012 7C2.44784 7 2.00012 7.44772 2.00012 8C2.00012 8.55228 2.44784 9 3.00012 9H8.00012C8.55241 9 9.00012 8.55228 9.00012 8C9.00012 7.44772 8.55241 7 8.00012 7H3.00012Z" fill="currentColor"/>
<path d="M3.00012 11C2.44784 11 2.00012 11.4477 2.00012 12C2.00012 12.5523 2.44784 13 3.00012 13H7.00012C7.55241 13 8.00012 12.5523 8.00012 12C8.00012 11.4477 7.55241 11 7.00012 11H3.00012Z" fill="currentColor"/>
<path d="M13.0001 16C13.0001 16.5523 13.4478 17 14.0001 17C14.5524 17 15.0001 16.5523 15.0001 16L15.0001 10.4142L16.293 11.7071C16.6835 12.0976 17.3167 12.0976 17.7072 11.7071C18.0978 11.3166 18.0978 10.6834 17.7072 10.2929L14.7072 7.29289C14.5197 7.10536 14.2653 7 14.0001 7C13.7349 7 13.4806 7.10536 13.293 7.29289L10.293 10.2929C9.90249 10.6834 9.90249 11.3166 10.293 11.7071C10.6835 12.0976 11.3167 12.0976 11.7072 11.7071L13.0001 10.4142L13.0001 16Z" fill="currentColor"/>
</svg>
