<svg viewBox="0 0 17 17" fill="currentColor" xmlns="http://www.w3.org/2000/svg">
<path d="M3.00012 3C2.44784 3 2.00012 3.44772 2.00012 4C2.00012 4.55228 2.44784 5 3.00012 5H14.0001C14.5524 5 15.0001 4.55228 15.0001 4C15.0001 3.44772 14.5524 3 14.0001 3H3.00012Z" fill="currentColor"/>
<path d="M3.00012 7C2.44784 7 2.00012 7.44772 2.00012 8C2.00012 8.55228 2.44784 9 3.00012 9H10.0001C10.5524 9 11.0001 8.55228 11.0001 8C11.0001 7.44772 10.5524 7 10.0001 7H3.00012Z" fill="currentColor"/>
<path d="M3.00012 11C2.44784 11 2.00012 11.4477 2.00012 12C2.00012 12.5523 2.44784 13 3.00012 13H7.00011C7.5524 13 8.00011 12.5523 8.00011 12C8.00011 11.4477 7.5524 11 7.00011 11H3.00012Z" fill="currentColor"/>
<path d="M15.0001 8C15.0001 7.44772 14.5524 7 14.0001 7C13.4478 7 13.0001 7.44771 13.0001 8L13.0001 13.5858L11.7072 12.2929C11.3167 11.9024 10.6835 11.9024 10.293 12.2929C9.90248 12.6834 9.90248 13.3166 10.293 13.7071L13.293 16.7071C13.4805 16.8946 13.7349 17 14.0001 17C14.2653 17 14.5197 16.8946 14.7072 16.7071L17.7072 13.7071C18.0977 13.3166 18.0977 12.6834 17.7072 12.2929C17.3167 11.9024 16.6835 11.9024 16.293 12.2929L15.0001 13.5858L15.0001 8Z" fill="currentColor"/>
</svg>
