<svg width="105" height="25" viewBox="0 0 105 25" fill="none" xmlns="http://www.w3.org/2000/svg">
<path d="M18.0781 14.0447L19.7686 9.16268C19.8257 8.99724 19.6422 8.84985 19.4948 8.9431L0 21.1857L13.8519 2.16006C14.294 1.55244 15.2024 1.55244 15.6446 2.16006L20.2439 8.47385L29.4995 21.1857L18.0781 14.0447Z" fill="#1E293B"/>
<path d="M18.7667 21.1856L14.751 16.7668L10.7354 21.1856H18.7667Z" fill="#1E293B"/>
<path d="M36.6705 10.0327C36.6326 9.61603 36.464 9.29216 36.1648 9.0611C35.8693 8.82625 35.447 8.70883 34.8977 8.70883C34.5341 8.70883 34.2311 8.75618 33.9886 8.85087C33.7462 8.94557 33.5644 9.07625 33.4432 9.24292C33.322 9.4058 33.2595 9.5933 33.2557 9.80542C33.2481 9.97966 33.2822 10.1331 33.358 10.2656C33.4375 10.3982 33.5511 10.5156 33.6989 10.6179C33.8504 10.7164 34.0322 10.8035 34.2443 10.8793C34.4564 10.955 34.6951 11.0213 34.9602 11.0781L35.9602 11.3054C36.536 11.4304 37.0436 11.5971 37.483 11.8054C37.9261 12.0138 38.2973 12.2619 38.5966 12.5497C38.8996 12.8376 39.1288 13.1691 39.2841 13.5441C39.4394 13.9191 39.5189 14.3395 39.5227 14.8054C39.5189 15.5403 39.3333 16.171 38.9659 16.6975C38.5985 17.224 38.0701 17.6274 37.3807 17.9077C36.6951 18.188 35.8674 18.3281 34.8977 18.3281C33.9242 18.3281 33.0758 18.1823 32.3523 17.8906C31.6288 17.599 31.0663 17.1558 30.6648 16.5611C30.2633 15.9664 30.0568 15.2145 30.0455 14.3054H32.7386C32.7614 14.6804 32.8617 14.9929 33.0398 15.2429C33.2178 15.4929 33.4621 15.6823 33.7727 15.8111C34.0871 15.9399 34.4508 16.0043 34.8636 16.0043C35.2424 16.0043 35.5644 15.9531 35.8295 15.8509C36.0985 15.7486 36.3049 15.6066 36.4489 15.4247C36.5928 15.2429 36.6667 15.0346 36.6705 14.7997C36.6667 14.58 36.5985 14.3925 36.4659 14.2372C36.3333 14.0781 36.1288 13.9418 35.8523 13.8281C35.5795 13.7107 35.2311 13.6028 34.8068 13.5043L33.5909 13.2202C32.5833 12.9891 31.7898 12.616 31.2102 12.1009C30.6307 11.5819 30.3428 10.8812 30.3466 9.9986C30.3428 9.2789 30.536 8.64822 30.9261 8.10656C31.3163 7.56489 31.8561 7.14254 32.5455 6.83951C33.2348 6.53648 34.0208 6.38496 34.9034 6.38496C35.8049 6.38496 36.5871 6.53837 37.25 6.84519C37.9167 7.14822 38.4337 7.57436 38.8011 8.1236C39.1686 8.67284 39.3561 9.30921 39.3636 10.0327H36.6705ZM43.4034 18.3281C42.8466 18.3281 42.3523 18.2353 41.9205 18.0497C41.4924 17.8603 41.1534 17.5763 40.9034 17.1975C40.6572 16.8149 40.5341 16.3357 40.5341 15.76C40.5341 15.2751 40.6193 14.866 40.7898 14.5327C40.9602 14.1994 41.1951 13.9285 41.4943 13.7202C41.7936 13.5119 42.1383 13.3547 42.5284 13.2486C42.9186 13.1388 43.3352 13.0649 43.7784 13.027C44.2746 12.9816 44.6742 12.9342 44.9773 12.885C45.2803 12.8319 45.5 12.7581 45.6364 12.6634C45.7765 12.5649 45.8466 12.4266 45.8466 12.2486V12.2202C45.8466 11.9285 45.7462 11.7031 45.5455 11.5441C45.3447 11.385 45.0739 11.3054 44.733 11.3054C44.3655 11.3054 44.0701 11.385 43.8466 11.5441C43.6231 11.7031 43.4811 11.9228 43.4205 12.2031L40.858 12.1122C40.9337 11.5819 41.1288 11.1085 41.4432 10.6918C41.7614 10.2713 42.197 9.94178 42.75 9.70315C43.3068 9.46072 43.9754 9.33951 44.7557 9.33951C45.3125 9.33951 45.8258 9.4058 46.2955 9.53837C46.7652 9.66716 47.1742 9.85656 47.5227 10.1066C47.8712 10.3528 48.1402 10.6558 48.3295 11.0156C48.5227 11.3755 48.6193 11.7865 48.6193 12.2486V18.1804H46.0057V16.9645H45.9375C45.7822 17.26 45.5833 17.51 45.3409 17.7145C45.1023 17.9191 44.8201 18.0725 44.4943 18.1747C44.1723 18.277 43.8087 18.3281 43.4034 18.3281ZM44.2614 16.51C44.5606 16.51 44.8295 16.4494 45.0682 16.3281C45.3106 16.2069 45.5038 16.0403 45.6477 15.8281C45.7917 15.6122 45.8636 15.3622 45.8636 15.0781V14.2486C45.7841 14.2903 45.6875 14.3281 45.5739 14.3622C45.464 14.3963 45.3428 14.4285 45.2102 14.4588C45.0777 14.4891 44.9413 14.5156 44.8011 14.5384C44.661 14.5611 44.5265 14.5819 44.3977 14.6009C44.1364 14.6425 43.9129 14.7069 43.7273 14.7941C43.5455 14.8812 43.4053 14.9948 43.3068 15.135C43.2121 15.2713 43.1648 15.4342 43.1648 15.6236C43.1648 15.9115 43.267 16.1312 43.4716 16.2827C43.6799 16.4342 43.9432 16.51 44.2614 16.51ZM53.0966 6.54406V18.1804H50.3182V6.54406H53.0966ZM58.9446 18.3452C58.0317 18.3452 57.2438 18.1653 56.581 17.8054C55.9219 17.4418 55.4143 16.9247 55.0582 16.2543C54.706 15.58 54.5298 14.7789 54.5298 13.8509C54.5298 12.9494 54.7079 12.1615 55.0639 11.4872C55.42 10.8092 55.9219 10.2827 56.5696 9.90769C57.2173 9.5289 57.9806 9.33951 58.8594 9.33951C59.4806 9.33951 60.0488 9.4361 60.5639 9.62928C61.0791 9.82246 61.5241 10.1084 61.8991 10.4872C62.2741 10.866 62.5658 11.3338 62.7741 11.8906C62.9825 12.4437 63.0866 13.0781 63.0866 13.7941V14.4872H55.5014V12.8736H60.5014C60.4976 12.5781 60.4276 12.3149 60.2912 12.0838C60.1548 11.8528 59.9673 11.6728 59.7287 11.5441C59.4938 11.4115 59.223 11.3452 58.9162 11.3452C58.6056 11.3452 58.3272 11.4153 58.081 11.5554C57.8348 11.6918 57.6397 11.8793 57.4957 12.1179C57.3518 12.3528 57.276 12.6198 57.2685 12.9191V14.5611C57.2685 14.9172 57.3385 15.2297 57.4787 15.4986C57.6188 15.7638 57.8177 15.9702 58.0753 16.1179C58.3329 16.2656 58.6397 16.3395 58.9957 16.3395C59.242 16.3395 59.4654 16.3054 59.6662 16.2372C59.867 16.1691 60.0393 16.0687 60.1832 15.9361C60.3272 15.8035 60.4351 15.6406 60.5071 15.4475L63.0582 15.5213C62.9522 16.0933 62.7192 16.5914 62.3594 17.0156C62.0033 17.4361 61.5355 17.7638 60.956 17.9986C60.3764 18.2297 59.706 18.3452 58.9446 18.3452ZM72.125 12.1179L69.5739 12.1861C69.5473 12.0043 69.4754 11.8433 69.358 11.7031C69.2405 11.5592 69.0871 11.4475 68.8977 11.3679C68.7121 11.2846 68.4962 11.2429 68.25 11.2429C67.928 11.2429 67.6534 11.3073 67.4261 11.4361C67.2027 11.5649 67.0928 11.7391 67.0966 11.9588C67.0928 12.1293 67.161 12.277 67.3011 12.402C67.4451 12.527 67.7008 12.6274 68.0682 12.7031L69.75 13.0213C70.6212 13.188 71.2689 13.4645 71.6932 13.8509C72.1212 14.2372 72.3371 14.7486 72.3409 15.385C72.3371 15.9835 72.1591 16.5043 71.8068 16.9475C71.4583 17.3906 70.9811 17.7353 70.375 17.9816C69.7689 18.224 69.0758 18.3452 68.2955 18.3452C67.0492 18.3452 66.0663 18.0895 65.3466 17.5781C64.6307 17.063 64.2216 16.3736 64.1193 15.51L66.8636 15.4418C66.9242 15.76 67.0814 16.0024 67.3352 16.1691C67.589 16.3357 67.9129 16.4191 68.3068 16.4191C68.6629 16.4191 68.9527 16.3528 69.1761 16.2202C69.3996 16.0876 69.5133 15.9115 69.517 15.6918C69.5133 15.4948 69.4261 15.3376 69.2557 15.2202C69.0852 15.099 68.8182 15.0043 68.4545 14.9361L66.9318 14.6463C66.0568 14.4872 65.4053 14.1937 64.9773 13.7656C64.5492 13.3338 64.3371 12.7846 64.3409 12.1179C64.3371 11.5346 64.4924 11.0365 64.8068 10.6236C65.1212 10.2069 65.5682 9.88875 66.1477 9.66906C66.7273 9.44936 67.411 9.33951 68.1989 9.33951C69.3807 9.33951 70.3125 9.58762 70.9943 10.0838C71.6761 10.5763 72.053 11.2543 72.125 12.1179Z" fill="#1E293B"/>
<path d="M78.4489 21.635C77.6193 21.635 76.9091 21.5194 76.3182 21.2884C75.7273 21.0573 75.2633 20.741 74.9261 20.3395C74.589 19.938 74.3864 19.4835 74.3182 18.9759L76.9489 18.8281C76.9981 19.0062 77.089 19.1615 77.2216 19.2941C77.358 19.4266 77.5341 19.5289 77.75 19.6009C77.9697 19.6728 78.2273 19.7088 78.5227 19.7088C78.9886 19.7088 79.3731 19.5952 79.6761 19.3679C79.983 19.1444 80.1364 18.7524 80.1364 18.1918V16.6577H80.0398C79.9299 16.9266 79.7633 17.1672 79.5398 17.3793C79.3163 17.5914 79.0379 17.7581 78.7045 17.8793C78.375 18.0005 77.9962 18.0611 77.5682 18.0611C76.9318 18.0611 76.3485 17.9134 75.8182 17.6179C75.2917 17.3187 74.8693 16.8566 74.5511 16.2316C74.2367 15.6028 74.0795 14.7941 74.0795 13.8054C74.0795 12.7865 74.2424 11.9475 74.5682 11.2884C74.8939 10.6255 75.3201 10.135 75.8466 9.81678C76.3769 9.4986 76.947 9.33951 77.5568 9.33951C78.0152 9.33951 78.4072 9.41906 78.733 9.57815C79.0625 9.73345 79.3333 9.93421 79.5455 10.1804C79.7576 10.4266 79.9186 10.6823 80.0284 10.9475H80.108V9.45315H82.875V18.2145C82.875 18.9531 82.6894 19.5763 82.3182 20.0838C81.947 20.5914 81.428 20.9759 80.7614 21.2372C80.0947 21.5024 79.3239 21.635 78.4489 21.635ZM78.5341 16.0384C78.8712 16.0384 79.1591 15.9494 79.3977 15.7713C79.6364 15.5933 79.8201 15.3376 79.9489 15.0043C80.0777 14.671 80.142 14.2713 80.142 13.8054C80.142 13.3319 80.0777 12.9247 79.9489 12.5838C79.8239 12.2391 79.6402 11.974 79.3977 11.7884C79.1591 11.6028 78.8712 11.51 78.5341 11.51C78.1894 11.51 77.8977 11.6047 77.6591 11.7941C77.4205 11.9834 77.2386 12.2505 77.1136 12.5952C76.9924 12.9361 76.9318 13.3395 76.9318 13.8054C76.9318 14.2713 76.9943 14.671 77.1193 15.0043C77.2443 15.3376 77.4242 15.5933 77.6591 15.7713C77.8977 15.9494 78.1894 16.0384 78.5341 16.0384ZM88.7202 18.3452C87.8035 18.3452 87.0156 18.1577 86.3565 17.7827C85.7012 17.4039 85.1955 16.8774 84.8395 16.2031C84.4872 15.5251 84.3111 14.7391 84.3111 13.8452C84.3111 12.9475 84.4872 12.1615 84.8395 11.4872C85.1955 10.8092 85.7012 10.2827 86.3565 9.90769C87.0156 9.5289 87.8035 9.33951 88.7202 9.33951C89.6368 9.33951 90.4228 9.5289 91.0781 9.90769C91.7372 10.2827 92.2429 10.8092 92.5952 11.4872C92.9512 12.1615 93.1293 12.9475 93.1293 13.8452C93.1293 14.7391 92.9512 15.5251 92.5952 16.2031C92.2429 16.8774 91.7372 17.4039 91.0781 17.7827C90.4228 18.1577 89.6368 18.3452 88.7202 18.3452ZM88.7372 16.2486C89.0705 16.2486 89.3527 16.1463 89.5838 15.9418C89.8149 15.7372 89.991 15.4531 90.1122 15.0895C90.2372 14.7259 90.2997 14.3054 90.2997 13.8281C90.2997 13.3433 90.2372 12.9191 90.1122 12.5554C89.991 12.1918 89.8149 11.9077 89.5838 11.7031C89.3527 11.4986 89.0705 11.3963 88.7372 11.3963C88.3925 11.3963 88.1009 11.4986 87.8622 11.7031C87.6274 11.9077 87.4474 12.1918 87.3224 12.5554C87.2012 12.9191 87.1406 13.3433 87.1406 13.8281C87.1406 14.3054 87.2012 14.7259 87.3224 15.0895C87.4474 15.4531 87.6274 15.7372 87.8622 15.9418C88.1009 16.1463 88.3925 16.2486 88.7372 16.2486ZM97.7401 18.3054C97.0961 18.3054 96.5109 18.1388 95.9844 17.8054C95.4579 17.4721 95.0374 16.9721 94.723 16.3054C94.4086 15.6388 94.2514 14.8111 94.2514 13.8225C94.2514 12.796 94.4143 11.9513 94.7401 11.2884C95.0658 10.6255 95.492 10.135 96.0185 9.81678C96.5488 9.4986 97.1188 9.33951 97.7287 9.33951C98.187 9.33951 98.5791 9.41906 98.9048 9.57815C99.2306 9.73345 99.4995 9.93421 99.7116 10.1804C99.9238 10.4266 100.085 10.6823 100.195 10.9475H100.251V6.54406H103.03V18.1804H100.28V16.7656H100.195C100.077 17.0346 99.9105 17.2865 99.6946 17.5213C99.4787 17.7562 99.2079 17.9456 98.8821 18.0895C98.5601 18.2335 98.1795 18.3054 97.7401 18.3054ZM98.706 16.1406C99.0431 16.1406 99.331 16.046 99.5696 15.8566C99.8082 15.6634 99.992 15.3925 100.121 15.0441C100.25 14.6956 100.314 14.2865 100.314 13.8168C100.314 13.3395 100.25 12.9285 100.121 12.5838C99.9957 12.2391 99.812 11.974 99.5696 11.7884C99.331 11.6028 99.0431 11.51 98.706 11.51C98.3613 11.51 98.0696 11.6047 97.831 11.7941C97.5923 11.9834 97.4105 12.2505 97.2855 12.5952C97.1643 12.9399 97.1037 13.3471 97.1037 13.8168C97.1037 14.2865 97.1662 14.6956 97.2912 15.0441C97.4162 15.3925 97.5961 15.6634 97.831 15.8566C98.0696 16.046 98.3613 16.1406 98.706 16.1406Z" fill="#1E293B"/>
</svg>
